<?xml version="1.0" encoding="UTF-8" standalone="no"?>
<!-- Created with Inkscape (http://www.inkscape.org/) -->

<svg
   width="84mm"
   height="84mm"
   viewBox="0 0 84 84"
   version="1.1"
   id="svg1"
   xml:space="preserve"
   inkscape:version="1.4.3 (0d15f75, 2025-12-25)"
   sodipodi:docname="KI-Robot-Icon_4GTlab.svg"
   xmlns:inkscape="http://www.inkscape.org/namespaces/inkscape"
   xmlns:sodipodi="http://sodipodi.sourceforge.net/DTD/sodipodi-0.dtd"
   xmlns="http://www.w3.org/2000/svg"
   xmlns:svg="http://www.w3.org/2000/svg"><sodipodi:namedview
     id="namedview1"
     pagecolor="#ffffff"
     bordercolor="#000000"
     borderopacity="0.25"
     inkscape:showpageshadow="2"
     inkscape:pageopacity="0.0"
     inkscape:pagecheckerboard="0"
     inkscape:deskcolor="#d1d1d1"
     inkscape:document-units="mm"
     showguides="true"
     inkscape:zoom="1.2877672"
     inkscape:cx="-78.430325"
     inkscape:cy="233.34963"
     inkscape:window-width="1920"
     inkscape:window-height="1129"
     inkscape:window-x="1912"
     inkscape:window-y="4"
     inkscape:window-maximized="1"
     inkscape:current-layer="layer1"><sodipodi:guide
       position="32.915072,14.353273"
       orientation="0,-1"
       id="guide2"
       inkscape:locked="false" /><sodipodi:guide
       position="41.892192,35.999033"
       orientation="1,0"
       id="guide3"
       inkscape:locked="false" /></sodipodi:namedview><defs
     id="defs1" /><g
     inkscape:label="Ebene 1"
     inkscape:groupmode="layer"
     id="layer1"
     transform="translate(-34.455266,-33.628951)"><path
       id="path6"
       style="baseline-shift:baseline;display:inline;overflow:visible;opacity:1;vector-effect:none;stroke-width:0.932974;enable-background:accumulate;stop-color:#000000;stop-opacity:1"
       d="m 76.506226,43.297341 c -3.051234,0 -5.56648,2.497565 -5.56648,5.527348 0,2.393089 1.571632,4.448744 3.734694,5.209303 -0.103075,-0.03624 -0.207452,-0.0699 -0.307717,-0.11194 l 0.02613,6.231177 H 56.868002 c -6.028971,0 -10.923944,4.861042 -10.923944,10.84763 v 0.748029 h -4.493341 c -2.373497,0 -4.324484,1.939674 -4.324484,4.296486 v 12.47965 c 0,2.356811 1.950987,4.294565 4.324484,4.294565 h 4.509792 c 0.315515,5.70665 5.082267,10.244711 10.907493,10.244711 h 38.961483 c 5.825235,0 10.592435,-4.538061 10.907985,-10.244711 h 4.5422 c 2.37351,0 4.3269,-1.937754 4.3269,-4.294565 v -12.47965 c 0,-2.356812 -1.95339,-4.296486 -4.3269,-4.296486 h -4.52575 v -0.748029 c 0,-5.986589 -4.89546,-10.84763 -10.924435,-10.84763 H 78.291563 l -0.02467,-6.08849 c -0.02079,0.007 -0.04248,0.01199 -0.06338,0.01873 2.233091,-0.720578 3.869199,-2.815744 3.869199,-5.258786 0,-3.029784 -2.515246,-5.527348 -5.566479,-5.527348 z M 56.867997,62.817214 h 38.961484 c 4.589299,0 8.241579,3.626597 8.241579,8.183645 v 21.215789 c 0,4.557048 -3.65228,8.183662 -8.241579,8.183662 H 56.867997 c -4.589312,0 -8.241583,-3.626614 -8.241583,-8.183662 V 71.000859 c 0,-4.557049 3.652271,-8.183645 8.241583,-8.183645 z m 6.283517,8.579519 c -3.414574,-10e-7 -6.209975,2.777671 -6.209975,6.168241 -10e-7,3.390571 2.7954,6.168241 6.209975,6.168241 3.414574,0 6.21191,-2.77767 6.21191,-6.168241 -10e-7,-3.39057 -2.797336,-6.168241 -6.21191,-6.168241 z m 26.482506,0 c -3.414574,-10e-7 -6.209975,2.777671 -6.209975,6.168241 0,3.390571 2.795401,6.168241 6.209975,6.168241 3.414575,0 6.211911,-2.77767 6.211911,-6.168241 0,-3.39057 -2.797337,-6.168241 -6.211911,-6.168241 z m -26.482506,2.663984 c 1.964894,0 3.529065,1.553177 3.529065,3.504257 1e-6,1.951081 -1.564171,3.504737 -3.529065,3.504737 -1.964894,10e-7 -3.52955,-1.553656 -3.52955,-3.504737 0,-1.951081 1.564656,-3.504257 3.52955,-3.504257 z m 26.482506,0 c 1.964894,0 3.529065,1.553177 3.529066,3.504257 0,1.951081 -1.564172,3.504737 -3.529066,3.504737 -1.964894,10e-7 -3.529065,-1.553656 -3.529065,-3.504737 0,-1.951081 1.564172,-3.504257 3.529065,-3.504257 z m -48.183307,0.352155 h 4.436249 c -0.0798,6.524174 -0.121754,10.003761 -0.134989,15.742732 h -4.30126 c -0.933841,0 -1.642124,-0.703309 -1.642124,-1.63058 v -12.47965 c 0,-0.92727 0.708283,-1.632502 1.642124,-1.632502 z m 65.392707,0 h 4.43624 c 0.93384,0 1.64407,0.705232 1.64407,1.632502 v 12.47965 c 0,0.927271 -0.71023,1.63058 -1.64407,1.63058 h -4.30077 c -0.0132,-5.738971 -0.0557,-9.218558 -0.13547,-15.742732 z M 84.80103,87.884131 c -0.44197,-0.0126 -0.870912,0.149483 -1.192645,0.450643 -2.314661,2.169691 -4.599916,3.103445 -6.967171,3.099254 -2.367253,-0.0042 -4.9343,-0.985225 -7.665339,-3.11751 -0.724556,-0.56666 -1.774638,-0.442294 -2.344646,0.277688 -0.568915,0.719655 -0.442867,1.760955 0.28159,2.326242 3.142313,2.453391 6.428971,3.823676 9.723074,3.829508 3.294102,0.0059 6.477307,-1.391822 9.263917,-4.003904 0.67015,-0.62832 0.700476,-1.677111 0.06774,-2.342577 -0.304005,-0.319995 -0.72367,-0.506834 -1.166516,-0.519344 z"
       sodipodi:nodetypes="sscccsscsssscsscsssscsscccssssssssssssssssssssssssssssssssccsssscssssccccsccccccc" /></g></svg>
