<svg viewBox="0 0 24 24" xmlns="http://www.w3.org/2000/svg">
  <path d="m 4.4472655,2.6054689 c -1.0999978,0 -2,0.9000021 -2,2 V 16.605469 c 0,1.099998 0.9000022,2 2,2 h 3.7050781 c -4.613e-4,-0.01756 -0.00195,-0.03506 -0.00195,-0.05273 v -1.94727 H 4.4472655 V 6.6054689 h 3.703125 v -0.052734 c 0,-1.0999978 0.9000012,-2 2.0000005,-2 h 4.294921 C 14.41704,3.4769058 13.529593,2.6054688 12.447265,2.6054689 Z m 7.1054685,2.7890624 c -1.099999,0 -1.9999996,0.9000012 -1.9999996,2 V 19.394531 c 0,1.099999 0.9000006,2 1.9999996,2 h 8 c 1.099999,0 2,-0.900001 2,-2 V 7.3945313 c 0,-1.0999989 -0.900001,-2 -2,-2 z m 0,4 h 8 v 9.9999997 h -8 z" />
</svg>
